<svg width="40" height="40" viewBox="0 0 40 40" fill="none" xmlns="http://www.w3.org/2000/svg">
<rect width="40" height="40" rx="8" fill="#171717"/>
<g clip-path="url(#clip0_10662_1267)">
<path d="M16.0001 32C18.2081 32 20.0001 30.208 20.0001 28V23.9999H16.0001C13.792 23.9999 12 25.792 12 28C12 30.208 13.792 32 16.0001 32Z" fill="#0ACF83"/>
<path d="M12 20C12 17.792 13.792 15.9999 16.0001 15.9999H20.0001V23.9999H16.0001C13.792 24 12 22.208 12 20Z" fill="#A259FF"/>
<path d="M12 12C12 9.79203 13.792 8 16.0001 8H20.0001V16H16.0001C13.792 16 12 14.208 12 12Z" fill="#F24E1E"/>
<path d="M20 8H24.0001C26.2081 8 28.0001 9.79203 28.0001 12C28.0001 14.208 26.2081 16 24.0001 16H20V8Z" fill="#FF7262"/>
<path d="M28.0001 20C28.0001 22.208 26.2081 24 24.0001 24C21.792 24 20 22.208 20 20C20 17.792 21.792 15.9999 24.0001 15.9999C26.2081 15.9999 28.0001 17.792 28.0001 20Z" fill="#1ABCFE"/>
</g>
<defs>
<clipPath id="clip0_10662_1267">
<rect width="24" height="24" fill="white" transform="translate(8 8)"/>
</clipPath>
</defs>
</svg>
